# xmcd
#
# Track frame offsets: 
#        150
#        20506
#        41589
#        79580
#        94136
#        119964
#        148907
#        169724
#        201175
#        215950
#        235661
#        269221
#        284235
#        308423
#
# Disc length: 4521 seconds
#
# Revision: 0
# Processed by: cddbd v1.5.2PL0 Copyright (c) Steve Scherf et al.
# Submitted via: ExactAudioCopy v0.95b4
#
DISCID=de11a70e
DTITLE=Buddy Guy - Can't Quit The Blues - [CD2]
DYEAR=2006
DGENRE=Blues
TTITLE0=Damn Right, I've Got The Blues
TTITLE1=Mustang Sally-(w Jeff Beck)
TTITLE2=Five Long Years
TTITLE3=Mary Ann
TTITLE4=She's Nineteen Years Old
TTITLE5=Miss Ida B
TTITLE6=Feels Like Rain-(w Bonnie Raitt)
TTITLE7=7-11-(w Johnnie Johnson)
TTITLE8=I Smell Trouble-(w Double Trouble)
TTITLE9=Someone Else Is Steppin' In-(Slippin' Out Slippin' In)--(w Joh
TTITLE9=nnie Johnson and Resse Wyans)
TTITLE10=My Time After Awhile-(w G.E. Smith)-(L)
TTITLE11=Your Mind Is On Vacation-(w David Z and Resse Wyans)
TTITLE12=Midnight Train-(w Jonny Lang and David Z)
TTITLE13=Totally Out Of Control-(w David Z and Resse Wyans)
EXTD=
EXTT0=
EXTT1=
EXTT2=
EXTT3=
EXTT4=
EXTT5=
EXTT6=
EXTT7=
EXTT8=
EXTT9=
EXTT10=
EXTT11=
EXTT12=
EXTT13=
PLAYORDER=
